HIERARCHY
ROOT Hips
{
 OFFSET 0.000000 0.000000 0.000000
 CHANNELS 6 Xposition Yposition Zposition Yrotation Xrotation Zrotation
 JOINT Chest
 {
  OFFSET 0.000000 9.857222 0.000240
  CHANNELS 3 Yrotation Xrotation Zrotation
  JOINT Chest2
  {
   OFFSET 0.000000 10.876940 -0.000436
   CHANNELS 3 Yrotation Xrotation Zrotation
   JOINT Chest3
   {
    OFFSET 0.000000 9.827798 0.000000
    CHANNELS 3 Yrotation Xrotation Zrotation
    JOINT Chest4
    {
     OFFSET 0.000000 9.827798 0.000000
     CHANNELS 3 Yrotation Xrotation Zrotation
     JOINT Neck
     {
      OFFSET 0.000000 13.831992 0.000000
      CHANNELS 3 Yrotation Xrotation Zrotation
      JOINT Head
      {
       OFFSET 0.000000 9.147643 -0.001036
       CHANNELS 3 Yrotation Xrotation Zrotation
       End Site
       {
        OFFSET 0.000000 17.515799 -0.000541
       }
      }
     }
     JOINT RightCollar
     {
      OFFSET -3.001579 7.717577 0.000000
      CHANNELS 3 Yrotation Xrotation Zrotation
      JOINT RightShoulder
      {
       OFFSET -14.002642 0.000000 0.000000
       CHANNELS 3 Yrotation Xrotation Zrotation
       JOINT RightElbow
       {
        OFFSET -30.053852 0.000000 0.000000
        CHANNELS 3 Yrotation Xrotation Zrotation
        JOINT RightWrist
        {
         OFFSET -24.564923 0.000000 -0.000000
         CHANNELS 3 Yrotation Xrotation Zrotation
         End Site
         {
          OFFSET -18.334355 0.000000 0.000000
         }
        }
       }
      }
     }
     JOINT LeftCollar
     {
      OFFSET 3.001579 7.717577 0.000000
      CHANNELS 3 Yrotation Xrotation Zrotation
      JOINT LeftShoulder
      {
       OFFSET 14.002642 0.000000 0.000000
       CHANNELS 3 Yrotation Xrotation Zrotation
       JOINT LeftElbow
       {
        OFFSET 30.053852 0.000000 0.000000
        CHANNELS 3 Yrotation Xrotation Zrotation
        JOINT LeftWrist
        {
         OFFSET 24.564923 0.000000 -0.000000
         CHANNELS 3 Yrotation Xrotation Zrotation
         End Site
         {
          OFFSET 18.334355 0.000000 0.000000
         }
        }
       }
      }
     }
    }
   }
  }
 }
 JOINT RightHip
 {
  OFFSET -8.003235 -0.001175 -0.000120
  CHANNELS 3 Yrotation Xrotation Zrotation
  JOINT RightKnee
  {
   OFFSET 0.000000 -41.759727 0.000113
   CHANNELS 3 Yrotation Xrotation Zrotation
   JOINT RightAnkle
   {
    OFFSET 0.000000 -40.728748 0.000159
    CHANNELS 3 Yrotation Xrotation Zrotation
    JOINT RightToe
    {
     OFFSET 0.000000 -6.515296 14.732841
     CHANNELS 3 Yrotation Xrotation Zrotation
     End Site
     {
      OFFSET 0.000000 -1.502839 6.412115
     }
    }
   }
  }
 }
 JOINT LeftHip
 {
  OFFSET 8.003235 -0.001175 -0.000120
  CHANNELS 3 Yrotation Xrotation Zrotation
  JOINT LeftKnee
  {
   OFFSET 0.000000 -41.759727 0.000113
   CHANNELS 3 Yrotation Xrotation Zrotation
   JOINT LeftAnkle
   {
    OFFSET 0.000000 -40.728748 0.000159
    CHANNELS 3 Yrotation Xrotation Zrotation
    JOINT LeftToe
    {
     OFFSET 0.000000 -6.515296 14.732841
     CHANNELS 3 Yrotation Xrotation Zrotation
     End Site
     {
      OFFSET 0.000000 -1.502839 6.412115
     }
    }
   }
  }
 }
}
MOTION
Frames: 9
Frame Time: 0.016667
5.603326 95.098360 -5.348679 -34.324159 0.054408 0.957021 4.477023 -5.192687 -0.935504 1.895214 -2.117992 -0.284090 1.895214 -2.117992 -0.284090 1.420264 -1.589393 -0.206475 2.295241 22.290975 -0.640004 4.321996 5.264309 -1.788503 5.206497 27.505668 14.610457 38.256598 -7.730761 80.626269 24.322660 15.082432 -5.041783 1.704714 -3.159980 -20.258947 -24.248489 32.207097 -22.315238 -34.224980 14.802329 -79.115942 -46.899989 -13.941381 17.469246 6.596349 0.981492 10.311014 -6.230702 -3.892999 0.178689 6.183618 14.935452 -7.490312 0.998806 0.035594 0.799694 0.119145 -0.415547 1.120179 -21.555784 9.686424 5.997562 25.465488 13.426277 -13.090671 10.012301 -12.453118 -14.093400 -0.754269 2.312281 -0.518063
5.874694 94.002928 -5.597382 -33.607540 0.195576 0.723572 3.827849 -5.291018 -0.602880 1.874516 -2.005197 -0.237227 1.874516 -2.005197 -0.237227 1.404965 -1.504643 -0.171752 2.262876 22.200428 -0.728803 4.290254 5.098767 -1.943059 6.191609 28.955031 14.878477 39.281177 -8.929130 79.075942 22.902135 12.754471 -4.874427 1.362165 -3.160614 -19.748313 -24.332225 32.202379 -22.515717 -35.606545 14.683129 -78.130354 -45.699274 -15.524186 16.342532 6.578621 1.002047 10.121244 -7.655765 -4.468230 0.630095 7.246883 16.406861 -7.885212 0.798665 -0.852566 1.002632 -0.038357 0.063297 1.017114 -24.080615 9.040661 6.676964 26.042530 15.080516 -14.158586 9.911748 -13.297475 -13.981886 -0.120188 1.836730 -0.063754
6.101913 92.650938 -5.800132 -32.964236 -0.093700 0.601955 3.368596 -5.065646 -0.396716 1.854985 -1.937380 -0.219371 1.854985 -1.937380 -0.219371 1.390411 -1.453717 -0.158632 2.257430 22.226567 -0.749395 4.285452 5.147952 -1.977838 6.215021 28.865078 14.765189 40.121262 -8.806241 78.792759 21.545023 11.977171 -4.325638 1.237446 -3.093003 -18.915858 -24.661240 32.380002 -22.858920 -36.598701 14.736018 -76.950972 -44.437155 -16.699496 14.826491 6.516062 1.052807 9.851390 -7.387755 -4.883398 1.391096 6.653349 18.769533 -9.105767 0.018711 -1.283750 1.040809 0.149488 -1.248851 2.611085 -27.042563 8.696766 7.237651 26.621650 16.904835 -15.732241 10.350380 -13.831185 -13.727636 0.181346 1.064851 0.336627
6.361851 91.021093 -6.047746 -32.867798 -0.205466 0.634693 3.538236 -5.176980 -0.358151 1.821520 -1.920722 -0.219723 1.821520 -1.920722 -0.219723 1.365322 -1.441212 -0.159052 2.288728 22.386129 -0.735874 4.334255 5.444688 -1.956472 6.008108 29.607984 14.550697 41.470068 -8.984198 78.261303 20.529589 11.853760 -3.556544 1.304214 -2.646516 -18.195727 -24.985076 32.273925 -23.218058 -38.026493 15.748669 -76.337936 -43.829434 -17.827201 13.738821 6.489653 1.078874 9.616356 -4.075295 -6.130574 2.202972 3.980521 21.984066 -10.466273 -1.514774 -2.647408 1.314437 0.492577 -3.823284 3.726370 -28.544893 8.075079 7.287482 27.513729 18.685722 -16.346509 10.101748 -15.054629 -13.361591 0.347972 1.122410 0.409345
6.595741 89.108731 -6.317544 -32.771443 -0.104455 0.485390 3.830110 -5.286592 -0.240337 1.807858 -1.891739 -0.251493 1.807858 -1.891739 -0.251493 1.354992 -1.419563 -0.183006 2.306353 22.548992 -0.644302 4.337109 5.743817 -1.790429 5.798400 31.205135 14.548615 43.479160 -9.665657 76.864612 20.193598 11.687707 -2.846440 1.412363 -2.098443 -17.628348 -24.865803 31.676338 -22.816614 -40.956164 17.559484 -77.096678 -44.301465 -18.949039 13.756889 6.557225 0.776400 9.974591 -2.385198 -6.708686 3.499409 1.544470 23.426245 -11.694408 -2.439186 -5.089304 1.375044 1.217574 -4.145984 4.156168 -29.239242 7.457415 6.885100 29.842079 20.088996 -15.616750 8.861219 -17.682920 -11.152166 0.268360 2.800192 -1.124283
6.522324 87.651130 -6.506493 -33.510808 -0.723015 0.106038 4.680371 -4.154289 0.059283 1.929712 -1.659820 -0.267019 1.929712 -1.659820 -0.267019 1.446458 -1.245723 -0.195011 2.302148 22.397247 -0.547292 4.306529 5.458052 -1.619429 5.226161 25.546790 14.960873 43.829288 -5.500058 79.748827 20.203134 10.980911 -2.817329 1.483287 -1.511305 -17.043444 -24.211001 26.821554 -21.294249 -43.351879 20.847880 -81.624722 -45.843758 -18.735320 14.795969 7.216978 0.175671 11.352378 -1.749936 -5.295614 5.537850 -1.131324 22.945166 -13.845455 -1.553841 -9.622578 1.366392 1.826242 -1.710954 4.437872 -27.701412 7.781636 6.010624 28.136843 20.202790 -17.545325 11.530650 -20.520488 -5.856012 -1.613274 4.297936 -3.831610
6.619227 87.026114 -6.653397 -34.991482 -3.952087 -0.643742 5.972856 -2.913263 1.168079 2.014129 -0.761582 -0.256795 2.014129 -0.761582 -0.256795 1.510255 -0.572040 -0.190086 2.339028 22.240802 -0.436367 4.346053 5.164424 -1.434579 4.821498 22.014518 16.027478 46.314559 -2.711448 82.105890 19.349677 9.962387 -3.451104 1.185659 -2.638243 -17.773531 -24.672444 23.226421 -21.671726 -41.663163 22.428870 -85.753660 -46.714884 -15.691534 16.949417 7.955854 -0.421182 12.840927 -3.576219 -1.407872 5.304399 -1.288385 21.424158 -13.690276 3.299542 -13.149661 1.872570 0.357966 1.035498 3.768501 -24.736867 10.425690 4.310849 32.731332 22.054959 -14.398381 6.219810 -21.744185 -3.654634 -1.114393 4.311722 -4.814902
6.687119 88.179935 -6.728827 -38.957887 -13.494691 -0.526534 8.987803 1.579500 2.439495 2.303513 1.205287 0.031939 2.303513 1.205287 0.031939 1.727508 0.904101 0.019410 2.413100 22.042827 -0.411211 4.477239 4.798303 -1.416386 4.846432 22.956507 16.377732 50.296541 -0.620825 77.443067 21.683344 4.803261 -1.109130 1.156301 -3.610932 -19.161575 -24.839181 23.488394 -22.070903 -39.489063 25.366380 -79.887958 -49.503876 -19.141457 15.965581 7.916052 -0.159844 12.844817 -3.165006 8.595260 4.300278 1.720643 19.811187 -13.127697 5.210469 -11.056298 2.304830 -0.672147 -0.777006 3.466965 -20.813872 19.840765 -5.879906 34.833084 17.706133 -7.342281 8.679134 -19.187798 -2.642871 -3.347126 1.519795 -6.322359
7.084105 89.287096 -6.779042 -34.338659 -6.195689 -0.316696 5.030141 -1.068358 0.693816 2.181801 -0.540624 -0.084934 2.181801 -0.540624 -0.084934 1.636263 -0.405778 -0.061771 2.405978 22.123110 -0.361971 4.448926 4.945130 -1.322690 4.500290 23.561408 16.327374 46.137912 -3.600111 77.390755 20.479587 6.837530 -1.960974 0.946111 -3.256232 -18.380416 -24.390601 24.194942 -21.920593 -36.910098 21.732171 -80.610766 -46.864584 -16.956407 16.690978 8.150220 0.136187 12.871107 -8.049633 1.366675 4.134156 3.779602 20.451123 -12.508655 2.208979 -9.133563 1.692209 0.530826 -2.567403 3.345772 -22.318046 12.484063 -9.381578 32.014624 13.886248 -2.131352 8.612126 -16.538513 -2.002880 -1.334751 -0.857336 -5.134296
